# xmcd
#
# Track frame offsets:
# 151
# 24863
# 39046
# 48377
# 83123
# 110119
# 148316
# 177687
# 189334
# 254390
# 277057
# 283522
# 291980
# 300689
#
# Disc length: 4236 seconds
#
#
# Revision: 0
# Processed by: cddbd v1.5.1PL0 Copyright (c) Steve Scherf et al.
# Submitted via: FreeRIP 2.60 
#
DISCID=d1108a0e
DTITLE=Stevie Ray Vaughan - Triple Trouble [CDThree)
DYEAR=2000
DGENRE=Blues
TTITLE0=Jam
TTITLE1=Shuffle
TTITLE2=Rude Mood
TTITLE3=Tell Me Where We're Going
TTITLE4=Maudie
TTITLE5=Chitlins Con Carne
TTITLE6=I'm Leaving You
TTITLE7=Shuffle Again
TTITLE8=Life Without You
TTITLE9=Give Me Back My Wig
TTITLE10=Ain't Gonna Give Up On Love
TTITLE11=Scuttle Buttin'
TTITLE12=Jeff's Boogie
TTITLE13=Dirty Pool
EXTD=Tracks 1-10   Dallas Sound Lab, Dallas, TX and Power Station, NYC - March-May, 1985\nTracks 11-14 Timothy White Session, NYC - Oct. 23, 1989
EXTT0=
EXTT1=
EXTT2=
EXTT3=
EXTT4=
EXTT5=
EXTT6=
EXTT7=
EXTT8=
EXTT9=
EXTT10=
EXTT11=
EXTT12=
EXTT13=
PLAYORDER=
